<?xml version="1.0" encoding="utf-8"?>
<!-- Generator: Adobe Illustrator 16.0.0, SVG Export Plug-In . SVG Version: 6.00 Build 0)  -->
<!DOCTYPE svg PUBLIC "-//W3C//DTD SVG 1.1//EN" "http://www.w3.org/Graphics/SVG/1.1/DTD/svg11.dtd">
<svg version="1.1" id="圖層_1" xmlns="http://www.w3.org/2000/svg" xmlns:xlink="http://www.w3.org/1999/xlink" x="0px" y="0px"
	 width="141.732px" height="141.732px" viewBox="0 0 141.732 141.732" enable-background="new 0 0 141.732 141.732"
	 xml:space="preserve">
<path fill-rule="evenodd" clip-rule="evenodd" fill="#2C4198" d="M117.505,69.817h5.301c-0.255-10.536-3.662-20.272-9.3-28.348
	c-10.182,7.229-22.332,11.924-35.445,13.181c-0.274-0.926-0.564-1.848-0.815-2.782c12.806-1.122,24.644-5.662,34.586-12.7
	c-3.25-4.15-7.118-7.791-11.499-10.755c-7.632,4.779-16.52,7.758-26.05,8.316c-0.115-0.882-0.242-1.764-0.336-2.651
	c8.701-0.48,16.834-3.076,23.905-7.274c-7.834-4.761-17.013-7.513-26.85-7.513c-9.838,0-19.02,2.752-26.854,7.513
	c7.071,4.198,15.203,6.794,23.905,7.274c-0.095,0.888-0.223,1.77-0.336,2.651c-9.531-0.558-18.418-3.537-26.081-8.346
	c-4.351,2.994-8.218,6.635-11.455,10.784c9.928,7.04,21.768,11.58,34.573,12.701c-0.252,0.935-0.542,1.856-0.814,2.782
	c-13.116-1.257-25.264-5.953-35.446-13.181c-5.639,8.076-9.045,17.813-9.3,28.348h5.3v2.626l-5.297,0.011
	c0.27,10.472,3.648,20.165,9.245,28.205c0.081-0.06,0.215-0.146,0.296-0.204c10.33-7.258,22.609-11.913,35.9-13.041
	c0.268,0.926,0.543,1.851,0.787,2.79c-13.075,1.011-25.179,5.599-35.29,12.759c0.213,0.271,0.428,0.541,0.646,0.809
	c3.106,3.816,6.761,7.182,10.83,9.951c7.778-4.874,16.86-7.857,26.6-8.329c0.097,0.877,0.17,1.755,0.245,2.639
	c-8.861,0.411-17.15,3.013-24.338,7.276l-0.064,0.064c7.85,4.793,17.068,7.541,26.94,7.541s19.102-2.748,26.952-7.541l-0.064-0.064
	c-7.188-4.264-15.476-6.865-24.338-7.276c0.076-0.884,0.148-1.762,0.246-2.639c9.739,0.472,18.82,3.455,26.614,8.365
	c4.055-2.804,7.708-6.171,10.815-9.987c0.219-0.268,0.435-0.537,0.646-0.809c-10.109-7.16-22.213-11.748-35.288-12.759
	c0.243-0.939,0.517-1.864,0.787-2.79c13.291,1.128,25.57,5.783,35.898,13.041c0.083,0.058,0.215,0.145,0.298,0.204
	c5.594-8.04,8.975-17.733,9.243-28.205l-5.297-0.011V69.817z M99.727,86.776l-2.465,0.041c-5.432,0-9.836-4.404-9.836-9.838
	c0-5.434,4.404-9.838,9.836-9.838c0.853,0,1.68,0.109,2.468,0.312c1.485,0.249,2.605,1.516,2.605,3.072
	c0,1.736-1.408,3.141-3.143,3.141h-1.93c-1.829,0-3.312,1.483-3.312,3.314c0,1.829,1.483,3.313,3.312,3.313l2.27-0.022
	c5.139,0,9.302-4.166,9.302-9.303c0-4.295-2.926-7.92-6.881-8.992c-1.332-0.372-2.731-0.517-4.185-0.517
	c-3.08,0-5.949,0.899-8.364,2.449c-5.222,3.404-9.381,8.439-11.491,14.418C75,86.44,72.938,94.971,71.838,103.779
	c-0.406,3.277-0.682,6.602-0.816,9.955h-0.1c-0.112-3.363-0.375-6.689-0.78-9.964c-1.145-9.25-3.429-18.15-6.722-26.543l-0.187,0.21
	c-5.41,4.98-12.634,8.023-20.568,8.023l-0.262,0.05c-8.744,0-15.825-7.079-15.825-15.823c0-8.671,6.971-15.715,15.614-15.831
	l2.463-0.041c5.432,0,9.838,4.404,9.838,9.836c0,5.434-4.406,9.838-9.838,9.838c-0.852,0-1.678-0.107-2.466-0.312
	c-1.486-0.25-2.605-1.514-2.605-3.071c0-1.735,1.407-3.142,3.142-3.142h1.929c1.831,0,3.312-1.483,3.312-3.313
	c0-1.829-1.481-3.312-3.312-3.312l-2.27,0.022c-5.136,0-9.302,4.164-9.302,9.303c0,4.293,2.927,7.92,6.881,8.992
	c1.333,0.373,2.732,0.516,4.184,0.516c3.082,0,5.953-0.899,8.366-2.448c5.222-3.405,9.381-8.44,11.491-14.417
	c3.997-11.131,6.392-23.026,6.893-35.41h0.097c0.433,12.846,3.042,25.137,7.539,36.486l0.152-0.19
	c5.411-4.98,12.634-8.021,20.567-8.021l0.262-0.052c8.746,0,15.826,7.081,15.826,15.825C115.341,79.616,108.37,86.659,99.727,86.776
	z"/>
</svg>
